{"title":"An Hour To Save Your Life - S02E03 - Minutes From Death","uid":15883058,"size":1444070850,"categoryP":"video","categoryS":"tv_shows","magnet":"?xt=urn:btih:af9046f2d4e62d6791f118715acd5408377bd972&amp;dn=An+Hour+To+Save+Your+Life+-+S02E03+-+Minutes+From+Death&amp;tr=udp%3A%2F%2Ftracker.leechers-paradise.org%3A6969&amp;tr=udp%3A%2F%2Fzer0day.ch%3A1337&amp;tr=udp%3A%2F%2Fopen.demonii.com%3A1337&amp;tr=udp%3A%2F%2Ftracker.coppersurfer.tk%3A6969&amp;tr=udp%3A%2F%2Fexodus.desync.com%3A6969","seeders":4,"leechers":1,"uploader":"Bullrout","files":1,"time":1474629548,"description":"An Hour To Save Your Life - S02E03 - Minutes From Death\r\n\r\nMedical science series exploring the life or death decisions facing doctors in the first critical hour of emergency care, including 360 degree access to specialists at the scene and in hospitals.\r\n\r\nComplete name                            : An Hour To Save Your Life - S02E03 - Minutes From Death.mkv\r\nFormat                                   : Matroska\r\nFormat version                           : Version 4 / Version 2\r\nFile size                                : 1.34 GiB\r\nDuration                                 : 58 min 58 s\r\nOverall bit rate mode                    : Variable\r\nOverall bit rate                         : 3 265 kb/s\r\nEncoded date                             : UTC 2016-09-18 07:47:24\r\nWriting application                      : mkvmerge v9.4.2 ('So High') 64bit\r\nWriting library                          : libebml v1.3.4 + libmatroska v1.4.5\r\n\r\nVideo\r\nID                                       : 2\r\nFormat                                   : AVC\r\nFormat/Info                              : Advanced Video Codec\r\nFormat profile                           :   \r\nFormat settings, CABAC                   : Yes\r\nFormat settings, ReFrames                : 3 frames\r\nCodec ID                                 : V_MPEG4/ISO/AVC\r\nDuration                                 : 58 min 58 s\r\nBit rate mode                            : Variable\r\nBit rate                                 : 2 879 kb/s\r\nMaximum bit rate                         : 3 000 kb/s\r\nWidth                                    : 1 280 pixels\r\nHeight                                   : 720 pixels\r\nDisplay aspect ratio                     : 16:9\r\nFrame rate mode                          : Constant\r\nFrame rate                               : 25.000 FPS\r\nStandard                                 : PAL\r\nColor space                              : YUV\r\nChroma subsampling                       : 4:2:0\r\nBit depth                                : 8 bits\r\nScan type                                : Progressive\r\nBits/(Pixel*Frame)                       : 0.125\r\nStream size                              : 1.19 GiB (88%)\r\nWriting library                          : x264 core 112\r\nDefault                                  : Yes\r\nForced                                   : No\r\nColor range                              : Limited\r\nColor primaries                          : BT.709\r\nTransfer characteristics                 : BT.709\r\nMatrix coefficients                      : BT.709\r\n\r\nAudio\r\nID                                       : 1\r\nFormat                                   : AC-3\r\nFormat/Info                              : Audio Coding 3\r\nMode extension                           : CM (complete main)\r\nFormat settings, Endianness              : Big\r\nCodec ID                                 : A_AC3\r\nDuration                                 : 58 min 58 s\r\nBit rate mode                            : Constant\r\nBit rate                                 : 384 kb/s\r\nChannel(s)                               : 6 channels\r\nChannel positions                        : Front: L C R, Side: L R, LFE\r\nSampling rate                            : 48.0 kHz\r\nFrame rate                               : 31.250 FPS (1536 spf)\r\nCompression mode                         : Lossy\r\nStream size                              : 162 MiB (12%)\r\nDefault                                  : Yes\r\nForced                                   : No","torrent":{"xt":"urn:btih:af9046f2d4e62d6791f118715acd5408377bd972","amp;dn":"An+Hour+To+Save+Your+Life+-+S02E03+-+Minutes+From+Death","amp;tr":["udp%3A%2F%2Ftracker.leechers-paradise.org%3A6969","udp%3A%2F%2Fzer0day.ch%3A1337","udp%3A%2F%2Fopen.demonii.com%3A1337","udp%3A%2F%2Ftracker.coppersurfer.tk%3A6969","udp%3A%2F%2Fexodus.desync.com%3A6969"],"infoHash":"af9046f2d4e62d6791f118715acd5408377bd972","infoHashBuffer":{"type":"Buffer","data":[175,144,70,242,212,230,45,103,145,241,24,113,90,205,84,8,55,123,217,114]},"announce":[],"urlList":[]}}